<svg width="112" height="30" viewBox="0 0 112 30" fill="none" xmlns="http://www.w3.org/2000/svg">
<g clip-path="url(#clip0_506_2287)">
<path d="M24.5358 9.99998V25C24.5358 26.3807 25.9056 27.5 27.5954 27.5H36.7742C38.464 27.5 39.8339 26.3807 39.8339 25V9.99998C39.8339 8.61929 38.464 7.5 36.7742 7.5H27.5954C25.9056 7.5 24.5358 8.61929 24.5358 9.99998Z" stroke="white" stroke-width="2" stroke-linecap="round" stroke-linejoin="round"/>
<path d="M30.655 2.5H33.7146" stroke="white" stroke-width="2" stroke-linecap="round" stroke-linejoin="round"/>
<path d="M30.655 22.5H33.7146" stroke="#4ADE80" stroke-width="2" stroke-linecap="round" stroke-linejoin="round"/>
<path d="M45.4783 16.25V25.625C45.4783 27.0057 46.8481 28.125 48.5379 28.125H56.2397C57.9294 28.125 59.2993 27.0057 59.2993 25.625V20.625V16.25C59.2993 14.8693 57.9294 13.75 56.2397 13.75H48.5379C46.8481 13.75 45.4783 14.8693 45.4783 16.25Z" stroke="black" stroke-width="2" stroke-linecap="round" stroke-linejoin="round"/>
<path d="M64.4688 6.413V13.75L75.8637 13.7499V13.2607V6.413C75.8637 4.2519 74.4806 2.5 72.7749 2.5H67.557C65.8513 2.5 64.4688 4.2519 64.4688 6.413Z" stroke="black" stroke-width="2" stroke-linecap="round" stroke-linejoin="round"/>
<path d="M80.9276 27.6326H93.5883" stroke="black" stroke-width="2" stroke-linecap="round" stroke-linejoin="round"/>
<path d="M45.4783 24.9998V5.625" stroke="white" stroke-width="2" stroke-linecap="round" stroke-linejoin="round"/>
<path d="M1.16666 2.54529L10.029 13.7953" stroke="black" stroke-width="2" stroke-linecap="round" stroke-linejoin="round"/>
<path d="M1.16666 2.54529C1.16666 15.0454 1.16666 27.5453 1.16666 27.5453" stroke="black" stroke-width="2" stroke-linecap="round" stroke-linejoin="round"/>
<path d="M18.8913 2.5907L10.029 13.8407" stroke="black" stroke-width="2" stroke-linecap="round" stroke-linejoin="round"/>
<path d="M18.8913 2.54529C18.8913 15.0454 18.8913 27.5453 18.8913 27.5453" stroke="black" stroke-width="2" stroke-linecap="round" stroke-linejoin="round"/>
<path d="M80.9276 27.6326H93.5883" stroke="black" stroke-width="2" stroke-linecap="round" stroke-linejoin="round"/>
<path d="M80.9276 27.6326H93.5883" stroke="black" stroke-width="2" stroke-linecap="round" stroke-linejoin="round"/>
<path d="M80.9276 27.6326H93.5883" stroke="black" stroke-width="2" stroke-linecap="round" stroke-linejoin="round"/>
<path d="M80.9276 27.6326H93.5883" stroke="black" stroke-width="2" stroke-linecap="round" stroke-linejoin="round"/>
<path d="M80.9276 27.5664L93.5883 2.5" stroke="black" stroke-width="2" stroke-linecap="round" stroke-linejoin="round"/>
<path d="M80.9276 27.6326H93.5883" stroke="black" stroke-width="2" stroke-linecap="round" stroke-linejoin="round"/>
<path d="M80.9276 2.5H87.2579H93.5883" stroke="black" stroke-width="2" stroke-linecap="round" stroke-linejoin="round"/>
<path d="M80.9276 27.6326H93.5883" stroke="black" stroke-width="2" stroke-linecap="round" stroke-linejoin="round"/>
<path d="M98.6889 2.56665L105.053 9.44167L111.417 2.56665" stroke="black" stroke-width="2" stroke-linecap="round" stroke-linejoin="round"/>
<path d="M64.4688 28.125V13.125" stroke="black" stroke-width="2" stroke-linecap="round" stroke-linejoin="round"/>
<path d="M75.8636 28.125V11.875" stroke="black" stroke-width="2" stroke-linecap="round" stroke-linejoin="round"/>
<path d="M104.982 27.5V9.375" stroke="black" stroke-width="2" stroke-linecap="round" stroke-linejoin="round"/>
<path d="M45.4783 16.25V25.625C45.4783 27.0057 46.8481 28.125 48.5379 28.125H56.2397C57.9294 28.125 59.2993 27.0057 59.2993 25.625V20.625V16.25C59.2993 14.8693 57.9294 13.75 56.2397 13.75H48.5379C46.8481 13.75 45.4783 14.8693 45.4783 16.25Z" stroke="white" stroke-width="2" stroke-linecap="round" stroke-linejoin="round"/>
<path d="M45.4783 5V11.25C45.4783 12.6307 46.8481 13.75 48.5379 13.75H54.3406C56.0304 13.75 57.4002 12.6307 57.4002 11.25V5C57.4002 3.61929 56.0304 2.5 54.3406 2.5H48.5379C46.8481 2.5 45.4783 3.61929 45.4783 5Z" stroke="white" stroke-width="2" stroke-linecap="round" stroke-linejoin="round"/>
<path d="M64.4688 6.41295V13.75L75.8637 13.7499V13.2607V6.41295C75.8637 4.2519 74.4806 2.5 72.7749 2.5H67.557C65.8513 2.5 64.4688 4.2519 64.4688 6.41295Z" stroke="white" stroke-width="2" stroke-linecap="round" stroke-linejoin="round"/>
<path d="M80.9276 27.6326H93.5883" stroke="black" stroke-width="2" stroke-linecap="round" stroke-linejoin="round"/>
<path d="M1.16666 2.54529L10.029 13.7953" stroke="white" stroke-width="2" stroke-linecap="round" stroke-linejoin="round"/>
<path d="M1.16666 2.54529C1.16666 15.0454 1.16666 27.5453 1.16666 27.5453Z" fill="white"/>
<path d="M1.16666 2.54529C1.16666 15.0454 1.16666 27.5453 1.16666 27.5453" stroke="white" stroke-width="2" stroke-linecap="round" stroke-linejoin="round"/>
<path d="M18.8913 2.59058L10.029 13.8406" stroke="white" stroke-width="2" stroke-linecap="round" stroke-linejoin="round"/>
<path d="M18.8913 2.54529C18.8913 15.0454 18.8913 27.5453 18.8913 27.5453" stroke="white" stroke-width="2" stroke-linecap="round" stroke-linejoin="round"/>
<path d="M80.9276 27.6326H93.5883" stroke="black" stroke-width="2" stroke-linecap="round" stroke-linejoin="round"/>
<path d="M80.9276 27.6326H93.5883" stroke="black" stroke-width="2" stroke-linecap="round" stroke-linejoin="round"/>
<path d="M80.9276 27.6326H93.5883" stroke="black" stroke-width="2" stroke-linecap="round" stroke-linejoin="round"/>
<path d="M80.9276 27.6326H93.5883" stroke="black" stroke-width="2" stroke-linecap="round" stroke-linejoin="round"/>
<path d="M80.9276 27.5663L93.5883 2.5" stroke="white" stroke-width="2" stroke-linecap="round" stroke-linejoin="round"/>
<path d="M80.9276 27.6326H93.5883" stroke="black" stroke-width="2" stroke-linecap="round" stroke-linejoin="round"/>
<path d="M80.9276 2.5H87.2579H93.5883" stroke="white" stroke-width="2" stroke-linecap="round" stroke-linejoin="round"/>
<path d="M80.9276 27.6326H93.5883" stroke="white" stroke-width="2" stroke-linecap="round" stroke-linejoin="round"/>
<path d="M98.6889 2.56665L105.053 9.44167L111.417 2.56665" stroke="white" stroke-width="2" stroke-linecap="round" stroke-linejoin="round"/>
<path d="M64.4688 28.125V13.125" stroke="white" stroke-width="2" stroke-linecap="round" stroke-linejoin="round"/>
<path d="M75.8636 28.125V11.875" stroke="white" stroke-width="2" stroke-linecap="round" stroke-linejoin="round"/>
<path d="M104.982 27.5V9.375" stroke="white" stroke-width="2" stroke-linecap="round" stroke-linejoin="round"/>
</g>
<defs>
<clipPath id="clip0_506_2287">
<rect width="112" height="30" fill="white"/>
</clipPath>
</defs>
</svg>
