<svg width="113" height="31" viewBox="0 0 113 31" fill="none" xmlns="http://www.w3.org/2000/svg">
<g clip-path="url(#clip0_422_1682)">
<path d="M25.034 10.7759V25.7759C25.034 27.1566 26.4038 28.2758 28.0936 28.2758H37.2724C38.9622 28.2758 40.3321 27.1566 40.3321 25.7759V10.7759C40.3321 9.39517 38.9622 8.27588 37.2724 8.27588H28.0936C26.4038 8.27588 25.034 9.39517 25.034 10.7759Z" stroke="black" stroke-width="2" stroke-linecap="round" stroke-linejoin="round"/>
<path d="M31.1532 3.27588H34.2129" stroke="black" stroke-width="2" stroke-linecap="round" stroke-linejoin="round"/>
<path d="M31.1532 23.2759H34.2129" stroke="#4ADE80" stroke-width="2" stroke-linecap="round" stroke-linejoin="round"/>
<path d="M45.9765 17.0259V26.4009C45.9765 27.7816 47.3464 28.9009 49.0361 28.9009H56.7379C58.4277 28.9009 59.7976 27.7816 59.7976 26.4009V21.4009V17.0259C59.7976 15.6452 58.4277 14.5259 56.7379 14.5259H49.0361C47.3464 14.5259 45.9765 15.6452 45.9765 17.0259Z" stroke="black" stroke-width="2" stroke-linecap="round" stroke-linejoin="round"/>
<path d="M64.9671 7.18888V14.5259L76.3619 14.5258V14.0366V7.18888C76.3619 5.02778 74.9788 3.27588 73.2732 3.27588H68.0552C66.3496 3.27588 64.9671 5.02778 64.9671 7.18888Z" stroke="black" stroke-width="2" stroke-linecap="round" stroke-linejoin="round"/>
<path d="M81.4258 28.4084H94.0865" stroke="black" stroke-width="2" stroke-linecap="round" stroke-linejoin="round"/>
<path d="M45.9765 25.7757V6.40082" stroke="black" stroke-width="2" stroke-linecap="round" stroke-linejoin="round"/>
<path d="M1.66489 3.32117L10.5272 14.5712" stroke="black" stroke-width="2" stroke-linecap="round" stroke-linejoin="round"/>
<path d="M1.66489 3.32117C1.66489 15.8213 1.66489 28.3212 1.66489 28.3212" stroke="black" stroke-width="2" stroke-linecap="round" stroke-linejoin="round"/>
<path d="M19.3895 3.36652L10.5273 14.6165" stroke="black" stroke-width="2" stroke-linecap="round" stroke-linejoin="round"/>
<path d="M19.3895 3.32117C19.3895 15.8213 19.3895 28.3212 19.3895 28.3212" stroke="black" stroke-width="2" stroke-linecap="round" stroke-linejoin="round"/>
<path d="M81.4258 28.4084H94.0865" stroke="black" stroke-width="2" stroke-linecap="round" stroke-linejoin="round"/>
<path d="M81.4258 28.4084H94.0865" stroke="black" stroke-width="2" stroke-linecap="round" stroke-linejoin="round"/>
<path d="M81.4258 28.4084H94.0865" stroke="black" stroke-width="2" stroke-linecap="round" stroke-linejoin="round"/>
<path d="M81.4258 28.4084H94.0865" stroke="black" stroke-width="2" stroke-linecap="round" stroke-linejoin="round"/>
<path d="M81.4258 28.3423L94.0865 3.27594" stroke="black" stroke-width="2" stroke-linecap="round" stroke-linejoin="round"/>
<path d="M81.4258 28.4084H94.0865" stroke="black" stroke-width="2" stroke-linecap="round" stroke-linejoin="round"/>
<path d="M81.4258 3.27588H87.7561H94.0865" stroke="black" stroke-width="2" stroke-linecap="round" stroke-linejoin="round"/>
<path d="M81.4258 28.4084H94.0865" stroke="black" stroke-width="2" stroke-linecap="round" stroke-linejoin="round"/>
<path d="M99.1871 3.34247L105.551 10.2175L111.915 3.34247" stroke="black" stroke-width="2" stroke-linecap="round" stroke-linejoin="round"/>
<path d="M64.9671 28.9009V13.9009" stroke="black" stroke-width="2" stroke-linecap="round" stroke-linejoin="round"/>
<path d="M76.3619 28.9009V12.6509" stroke="black" stroke-width="2" stroke-linecap="round" stroke-linejoin="round"/>
<path d="M105.481 28.2758V10.1509" stroke="black" stroke-width="2" stroke-linecap="round" stroke-linejoin="round"/>
<path d="M45.9765 17.0259V26.4009C45.9765 27.7816 47.3464 28.9009 49.0361 28.9009H56.7379C58.4277 28.9009 59.7976 27.7816 59.7976 26.4009V21.4009V17.0259C59.7976 15.6452 58.4277 14.5259 56.7379 14.5259H49.0361C47.3464 14.5259 45.9765 15.6452 45.9765 17.0259Z" stroke="black" stroke-width="2" stroke-linecap="round" stroke-linejoin="round"/>
<path d="M45.9765 5.77582V12.0258C45.9765 13.4066 47.3464 14.5258 49.0361 14.5258H54.8388C56.5286 14.5258 57.8985 13.4066 57.8985 12.0258V5.77582C57.8985 4.39511 56.5286 3.27582 54.8388 3.27582H49.0361C47.3464 3.27582 45.9765 4.39511 45.9765 5.77582Z" stroke="black" stroke-width="2" stroke-linecap="round" stroke-linejoin="round"/>
<path d="M64.9671 7.18877V14.5258L76.3619 14.5257V14.0365V7.18877C76.3619 5.02772 74.9788 3.27582 73.2732 3.27582H68.0552C66.3496 3.27582 64.9671 5.02772 64.9671 7.18877Z" stroke="black" stroke-width="2" stroke-linecap="round" stroke-linejoin="round"/>
<path d="M81.4258 28.4084H94.0865" stroke="black" stroke-width="2" stroke-linecap="round" stroke-linejoin="round"/>
<path d="M1.66489 3.32117L10.5272 14.5712" stroke="black" stroke-width="2" stroke-linecap="round" stroke-linejoin="round"/>
<path d="M1.66489 3.32117C1.66489 15.8213 1.66489 28.3212 1.66489 28.3212" stroke="black" stroke-width="2" stroke-linecap="round" stroke-linejoin="round"/>
<path d="M19.3895 3.36646L10.5273 14.6165" stroke="black" stroke-width="2" stroke-linecap="round" stroke-linejoin="round"/>
<path d="M19.3895 3.32117C19.3895 15.8213 19.3895 28.3212 19.3895 28.3212" stroke="black" stroke-width="2" stroke-linecap="round" stroke-linejoin="round"/>
<path d="M81.4258 28.4084H94.0865" stroke="black" stroke-width="2" stroke-linecap="round" stroke-linejoin="round"/>
<path d="M81.4258 28.4084H94.0865" stroke="black" stroke-width="2" stroke-linecap="round" stroke-linejoin="round"/>
<path d="M81.4258 28.4084H94.0865" stroke="black" stroke-width="2" stroke-linecap="round" stroke-linejoin="round"/>
<path d="M81.4258 28.4084H94.0865" stroke="black" stroke-width="2" stroke-linecap="round" stroke-linejoin="round"/>
<path d="M81.4258 28.3422L94.0865 3.27588" stroke="black" stroke-width="2" stroke-linecap="round" stroke-linejoin="round"/>
<path d="M81.4258 28.4084H94.0865" stroke="black" stroke-width="2" stroke-linecap="round" stroke-linejoin="round"/>
<path d="M81.4258 3.27582H87.7561H94.0865" stroke="black" stroke-width="2" stroke-linecap="round" stroke-linejoin="round"/>
<path d="M81.4258 28.4084H94.0865" stroke="black" stroke-width="2" stroke-linecap="round" stroke-linejoin="round"/>
<path d="M99.1871 3.34247L105.551 10.2175L111.915 3.34247" stroke="black" stroke-width="2" stroke-linecap="round" stroke-linejoin="round"/>
<path d="M64.9671 28.9009V13.9009" stroke="black" stroke-width="2" stroke-linecap="round" stroke-linejoin="round"/>
<path d="M76.3619 28.9009V12.6509" stroke="black" stroke-width="2" stroke-linecap="round" stroke-linejoin="round"/>
<path d="M105.481 28.2758V10.1509" stroke="black" stroke-width="2" stroke-linecap="round" stroke-linejoin="round"/>
</g>
<defs>
<clipPath id="clip0_422_1682">
<rect width="112" height="30" fill="white" transform="translate(0.49823 0.775879)"/>
</clipPath>
</defs>
</svg>
