<svg width="192" height="52" viewBox="0 0 192 52" fill="none" xmlns="http://www.w3.org/2000/svg">
<path d="M41.5613 17.3334L41.5613 43.3334C41.5613 45.7266 43.9096 47.6667 46.8064 47.6667L62.5415 47.6667C65.4383 47.6667 67.7866 45.7266 67.7866 43.3334V17.3334C67.7866 14.9401 65.4383 13 62.5415 13L46.8064 13C43.9096 13 41.5613 14.9401 41.5613 17.3334Z" stroke="black" stroke-width="2" stroke-linecap="round" stroke-linejoin="round"/>
<path d="M52.0514 4.33331L57.2965 4.33331" stroke="black" stroke-width="2" stroke-linecap="round" stroke-linejoin="round"/>
<path d="M52.0514 39H57.2965" stroke="#4ADE80" stroke-width="2" stroke-linecap="round" stroke-linejoin="round"/>
<path d="M77.4628 28.1667V44.4167C77.4628 46.8099 79.8111 48.75 82.7078 48.75H95.9109C98.8076 48.75 101.156 46.8099 101.156 44.4167V35.75V28.1667C101.156 25.7734 98.8076 23.8333 95.9109 23.8333L82.7078 23.8333C79.8111 23.8333 77.4628 25.7734 77.4628 28.1667Z" stroke="black" stroke-width="2" stroke-linecap="round" stroke-linejoin="round"/>
<path d="M110.018 11.1158V23.8333L129.552 23.8332V22.9852V11.1158C129.552 7.36994 127.181 4.33331 124.257 4.33331L115.312 4.33331C112.388 4.33331 110.018 7.36994 110.018 11.1158Z" stroke="black" stroke-width="2" stroke-linecap="round" stroke-linejoin="round"/>
<path d="M138.233 47.8965H159.937" stroke="black" stroke-width="2" stroke-linecap="round" stroke-linejoin="round"/>
<path d="M77.4628 43.3331L77.4628 9.75" stroke="black" stroke-width="2" stroke-linecap="round" stroke-linejoin="round"/>
<path d="M1.5 4.41187L16.6926 23.9119" stroke="black" stroke-width="2" stroke-linecap="round" stroke-linejoin="round"/>
<path d="M1.5 4.41187C1.5 26.0788 1.5 47.7452 1.5 47.7452" stroke="black" stroke-width="2" stroke-linecap="round" stroke-linejoin="round"/>
<path d="M31.8851 4.49042L16.6925 23.9904" stroke="black" stroke-width="2" stroke-linecap="round" stroke-linejoin="round"/>
<path d="M31.8851 4.41187C31.8851 26.0788 31.8851 47.7452 31.8851 47.7452" stroke="black" stroke-width="2" stroke-linecap="round" stroke-linejoin="round"/>
<path d="M138.233 47.8965H159.937" stroke="black" stroke-width="2" stroke-linecap="round" stroke-linejoin="round"/>
<path d="M138.233 47.8965H159.937" stroke="black" stroke-width="2" stroke-linecap="round" stroke-linejoin="round"/>
<path d="M138.233 47.8965H159.937" stroke="black" stroke-width="2" stroke-linecap="round" stroke-linejoin="round"/>
<path d="M138.233 47.8965H159.937" stroke="black" stroke-width="2" stroke-linecap="round" stroke-linejoin="round"/>
<path d="M138.233 47.7817L159.937 4.33334" stroke="black" stroke-width="2" stroke-linecap="round" stroke-linejoin="round"/>
<path d="M138.233 47.8965H159.937" stroke="black" stroke-width="2" stroke-linecap="round" stroke-linejoin="round"/>
<path d="M138.233 4.33331H149.085L159.937 4.33331" stroke="black" stroke-width="2" stroke-linecap="round" stroke-linejoin="round"/>
<path d="M138.233 47.8965H159.937" stroke="black" stroke-width="2" stroke-linecap="round" stroke-linejoin="round"/>
<path d="M168.681 4.4488L179.591 16.3655L190.5 4.4488" stroke="black" stroke-width="2" stroke-linecap="round" stroke-linejoin="round"/>
<path d="M110.018 48.75V22.75" stroke="black" stroke-width="2" stroke-linecap="round" stroke-linejoin="round"/>
<path d="M129.552 48.75V20.5833" stroke="black" stroke-width="2" stroke-linecap="round" stroke-linejoin="round"/>
<path d="M179.47 47.6667L179.47 16.25" stroke="black" stroke-width="2" stroke-linecap="round" stroke-linejoin="round"/>
<path d="M77.4628 28.1667V44.4167C77.4628 46.8099 79.8111 48.75 82.7078 48.75H95.9109C98.8076 48.75 101.156 46.8099 101.156 44.4167V35.75V28.1667C101.156 25.7734 98.8076 23.8333 95.9109 23.8333L82.7078 23.8333C79.8111 23.8333 77.4628 25.7734 77.4628 28.1667Z" stroke="black" stroke-width="2" stroke-linecap="round" stroke-linejoin="round"/>
<path d="M77.4628 8.66671V19.5C77.4628 21.8933 79.8111 23.8334 82.7078 23.8334L92.6553 23.8334C95.5521 23.8334 97.9004 21.8933 97.9004 19.5V8.66671C97.9004 6.27347 95.5521 4.33337 92.6553 4.33337L82.7078 4.33337C79.8111 4.33337 77.4628 6.27347 77.4628 8.66671Z" stroke="black" stroke-width="2" stroke-linecap="round" stroke-linejoin="round"/>
<path d="M110.018 11.1159V23.8334L129.552 23.8332V22.9852V11.1159C129.552 7.37 127.181 4.33337 124.257 4.33337L115.312 4.33337C112.388 4.33337 110.018 7.37 110.018 11.1159Z" stroke="black" stroke-width="2" stroke-linecap="round" stroke-linejoin="round"/>
<path d="M138.233 47.8965H159.937" stroke="black" stroke-width="2" stroke-linecap="round" stroke-linejoin="round"/>
<path d="M1.5 4.41193L16.6926 23.9119" stroke="black" stroke-width="2" stroke-linecap="round" stroke-linejoin="round"/>
<path d="M1.5 4.41193C1.5 26.0789 1.5 47.7453 1.5 47.7453" stroke="black" stroke-width="2" stroke-linecap="round" stroke-linejoin="round"/>
<path d="M31.8851 4.49048L16.6925 23.9905" stroke="black" stroke-width="2" stroke-linecap="round" stroke-linejoin="round"/>
<path d="M31.8851 4.41193C31.8851 26.0789 31.8851 47.7453 31.8851 47.7453" stroke="black" stroke-width="2" stroke-linecap="round" stroke-linejoin="round"/>
<path d="M138.233 47.8965H159.937" stroke="black" stroke-width="2" stroke-linecap="round" stroke-linejoin="round"/>
<path d="M138.233 47.8965H159.937" stroke="black" stroke-width="2" stroke-linecap="round" stroke-linejoin="round"/>
<path d="M138.233 47.8965H159.937" stroke="black" stroke-width="2" stroke-linecap="round" stroke-linejoin="round"/>
<path d="M138.233 47.8965H159.937" stroke="black" stroke-width="2" stroke-linecap="round" stroke-linejoin="round"/>
<path d="M138.233 47.7818L159.937 4.3334" stroke="black" stroke-width="2" stroke-linecap="round" stroke-linejoin="round"/>
<path d="M138.233 47.8965H159.937" stroke="black" stroke-width="2" stroke-linecap="round" stroke-linejoin="round"/>
<path d="M138.233 4.33337H149.085L159.937 4.33337" stroke="black" stroke-width="2" stroke-linecap="round" stroke-linejoin="round"/>
<path d="M138.233 47.8965H159.937" stroke="black" stroke-width="2" stroke-linecap="round" stroke-linejoin="round"/>
<path d="M168.681 4.4488L179.591 16.3655L190.5 4.4488" stroke="black" stroke-width="2" stroke-linecap="round" stroke-linejoin="round"/>
<path d="M110.018 48.75V22.75" stroke="black" stroke-width="2" stroke-linecap="round" stroke-linejoin="round"/>
<path d="M129.552 48.75V20.5833" stroke="black" stroke-width="2" stroke-linecap="round" stroke-linejoin="round"/>
<path d="M179.47 47.6667L179.47 16.25" stroke="black" stroke-width="2" stroke-linecap="round" stroke-linejoin="round"/>
</svg>
